<mxfile host="app.diagrams.net" modified="2024-06-18T11:24:33.850Z" agent="Mozilla/5.0 (Windows NT 10.0; Win64; x64) AppleWebKit/537.36 (KHTML, like Gecko) Chrome/126.0.0.0 Safari/537.36" version="24.5.5" etag="nLDzP0jXDPYfbqm-JQn3" type="github">
  <diagram name="Страница — 1" id="IPhaka-8JI4Nbwml-yvL">
    <mxGraphModel>
      <root>
        <mxCell id="0" />
        <mxCell id="1" parent="0" />
      </root>
    </mxGraphModel>
  </diagram>
</mxfile>
